<svg id="visual" viewBox="0 0 900 900" width="400" height="400" xmlns="http://www.w3.org/2000/svg" xmlns:xlink="http://www.w3.org/1999/xlink" version="1.1"><rect x="0" y="0" width="900" height="900" fill="#001220"></rect><defs><linearGradient id="grad1_0" x1="0%" y1="100%" x2="100%" y2="0%"><stop offset="30%" stop-color="#001220" stop-opacity="1"></stop><stop offset="70%" stop-color="#001220" stop-opacity="1"></stop></linearGradient></defs><defs><linearGradient id="grad2_0" x1="0%" y1="100%" x2="100%" y2="0%"><stop offset="30%" stop-color="#001220" stop-opacity="1"></stop><stop offset="70%" stop-color="#001220" stop-opacity="1"></stop></linearGradient></defs><g transform="translate(900, 900)"><path d="M-350 0C-305.9 -23.6 -261.7 -47.1 -250.1 -81.3C-238.5 -115.4 -259.5 -160.1 -245.1 -178.1C-230.7 -196.1 -180.9 -187.3 -155.8 -214.4C-130.6 -241.4 -130 -304.3 -108.2 -332.9C-86.3 -361.5 -43.2 -355.7 0 -350L0 0Z" fill="#FBAE3C"></path></g><g transform="translate(0, 0)"><path d="M350 0C349.1 37.4 348.2 74.8 332.9 108.2C317.6 141.5 288 170.9 254 184.6C220 198.3 181.7 196.3 157.5 216.8C133.4 237.3 123.4 280.3 99.5 306.2C75.6 332.2 37.8 341.1 0 350L0 0Z" fill="#FBAE3C"></path></g></svg>